# xmcd CD database file
#
# Track frame offsets:
#	150
#	17662
#	34447
#	49379
#	62479
#	74679
#	84904
#	92931
#	104229
#	117579
#	127300
#	139954
#	153676
#	166154
#	178085
#	189050
#	195771
#	204222
#
# Disc length: 2830 seconds
#
# Revision: 0
# Processed by: cddbd v1.5.2PL0 Copyright (c) Steve Scherf et al.
# Submitted via: CDex 1.70beta2
#
DISCID=090b0c12
DTITLE=Hidenori Midorikawa - Rittor Music Alto Saxophone Songs - Peformance
DYEAR=2010
DGENRE=Jazz
TTITLE0=Yesterday Once More
TTITLE1=We're All Alione
TTITLE2=Imagine
TTITLE3=Moon River
TTITLE4=Rain Drops Keep Fallin'  OnMy Head
TTITLE5=My Favorite Things
TTITLE6=Scarbrough Fair
TTITLE7=Someday My Price Will Come
TTITLE8=Autumn Leaves
TTITLE9=Take The "A" Train
TTITLE10=Take Five
TTITLE11=Stardust
TTITLE12=Garota De Ipanema
TTITLE13=Wave
TTITLE14=Georgia On My Mind
TTITLE15=Theme From Lupin III '78
TTITLE16=Santa Claus Is Comin' To Town
TTITLE17=Happy Birthday To You
EXTD=YEAR: 2010
EXTT0=
EXTT1=
EXTT2=
EXTT3=
EXTT4=
EXTT5=
EXTT6=
EXTT7=
EXTT8=
EXTT9=
EXTT10=
EXTT11=
EXTT12=
EXTT13=
EXTT14=
EXTT15=
EXTT16=
EXTT17=
PLAYORDER=
